# xmcd
#
# Track frame offsets: 
#        150
#        22104
#        65739
#        91239
#        108122
#        126870
#        163261
#        184554
#        203851
#
# Disc length: 3000 seconds
#
# Revision: 0
# Processed by: cddbd v1.5.2PL0 Copyright (c) Steve Scherf et al.
# Submitted via: ExactAudioCopy v1.1
#
DISCID=790bb609
DTITLE=Richard Wyands - Then, Here And Now
DYEAR=1998
DGENRE=Jazz
TTITLE0=Yes It Is
TTITLE1=Lament
TTITLE2=As Long As There's Music
TTITLE3=Leonora
TTITLE4=Never Let Me Go
TTITLE5=Yesterdays
TTITLE6=Blue Rose
TTITLE7=Leonora
TTITLE8=Blue Rose
EXTD=
EXTT0=
EXTT1=
EXTT2=
EXTT3=
EXTT4=
EXTT5=
EXTT6=
EXTT7=
EXTT8=
PLAYORDER=
